<svg width="84" height="66" viewBox="0 0 84 66" fill="currentColor" xmlns="http://www.w3.org/2000/svg">
    <symbol id="mushroom" viewBox="0 0 84 66">
        <path d="M79.6227 24.2194C79.1062 24.2194 78.5823 24.0729 78.1193 23.7655C76.8624 22.9343 76.5186 21.2417 77.3508 19.9847C78.6378 18.0393 78.5159 15.8911 77.0243 14.2358C74.0421 10.928 66.2522 10.083 55.572 15.6601C54.2368 16.3577 52.5879 15.8411 51.8903 14.5041C51.1927 13.1681 51.7102 11.52 53.0463 10.8225C67.2081 3.42641 76.8133 5.84841 81.0779 10.5814C84.2448 14.0948 84.5686 18.9688 81.9001 22.9961C81.3744 23.7901 80.5068 24.2194 79.6227 24.2194Z"/>
        <path d="M5.48677 52.9714C4.69005 52.9714 3.90151 52.6248 3.36218 51.9573C-3.59094 43.347 3.02384 36.6058 7.39944 32.1457C8.80371 30.715 10.1307 29.3617 11.0856 28.0384C12.3426 26.2967 12.8865 24.0311 13.4631 21.6319C14.1497 18.7724 14.9283 15.5318 17.082 12.6878C27.6967 -1.33118 47.5938 -3.73044 63.3646 7.10351C64.606 7.95662 64.9216 9.65557 64.0676 10.8979C63.2145 12.1385 61.5174 12.455 60.2732 11.601C48.9463 3.8175 31.483 2.70882 21.4321 15.9811C19.9687 17.9156 19.3857 20.3395 18.7691 22.9051C18.0951 25.7128 17.3976 28.6159 15.5104 31.2307C14.3144 32.8878 12.7791 34.4531 11.2948 35.9656C5.90332 41.4607 4.06067 44.1347 7.60681 48.5276C8.5536 49.6999 8.37079 51.4179 7.19844 52.3647C6.69458 52.7731 6.08795 52.9714 5.48677 52.9714Z"/>
        <path d="M7.84789 54.0473C7.24762 54.0473 6.6801 53.9809 6.14713 53.8399C4.68193 53.4552 3.54051 52.5557 2.84656 51.2379C0.326336 46.4457 7.14121 41.1106 12.6173 36.8241C13.6532 36.0119 14.8283 35.0933 15.1284 34.7668L16.0552 33.7582C21.7159 27.5845 28.1315 20.5877 37.7931 19.5928C41.0337 19.259 43.9668 19.6955 46.5571 20.0793C50.6353 20.6851 53.8558 21.1607 57.5238 18.9261L58.2723 18.4686C63.7048 15.1462 69.3191 11.7083 77.008 14.2294C81.3936 15.6692 82.4623 18.133 82.5851 19.9456C82.9834 25.811 73.7493 30.3749 73.3564 30.5659C66.8289 33.7427 59.7166 34.9051 52.8381 36.0301L50.849 36.3566C49.3738 36.6095 47.9577 35.6008 47.7103 34.1129C47.4629 32.6268 48.467 31.2207 49.9541 30.9742L51.9577 30.645C58.4479 29.5836 65.16 28.4867 70.968 25.66C74.4105 23.9838 77.0298 21.3426 77.1362 20.3676C77.0344 20.2485 76.6115 19.8438 75.3054 19.4154C70.0176 17.681 66.2859 19.9647 61.1191 23.1243L60.3633 23.5864C55.0091 26.8515 50.3042 26.153 45.7558 25.4781C43.262 25.1089 40.9054 24.7587 38.3507 25.0216C30.7518 25.8037 25.3248 31.7227 20.0761 37.4462L19.1411 38.4649C18.5672 39.0879 17.6141 39.8418 15.9797 41.1215C14.1753 42.534 8.98113 46.5994 7.94612 48.6394C7.98341 48.6422 8.02161 48.6431 8.06072 48.6431C11.2249 48.6431 20.7028 42.5267 24.9028 39.8173C29.8514 36.624 32.7454 34.7959 34.679 34.3657C36.1515 34.0401 37.6076 34.966 37.935 36.4358C38.2624 37.9064 37.3357 39.3644 35.8659 39.6927C34.7882 39.9328 30.9483 42.4112 27.8614 44.403C19.2112 49.9846 12.5145 54.0473 7.84789 54.0473Z"/>
        <path d="M43.5293 65.4461C43.1 65.4461 42.6644 65.3442 42.2578 65.1286C40.9254 64.4256 40.4161 62.774 41.1201 61.4415C46.6525 50.9659 48.1332 38.0701 45.4011 24.1466C45.1109 22.6678 46.0741 21.2335 47.552 20.9443C49.0345 20.6496 50.4652 21.6173 50.7544 23.0952C53.7303 38.2575 52.0668 52.3993 45.944 63.9909C45.4556 64.9167 44.5089 65.4461 43.5293 65.4461Z"/>
        <path d="M29.6568 65.446C29.2784 65.446 28.8928 65.366 28.5263 65.1996C27.1548 64.5738 26.5509 62.9558 27.1766 61.5843C32.8219 49.2088 34.6672 38.0174 33.3475 24.163C33.2048 22.6632 34.3052 21.3317 35.805 21.188C37.293 21.0316 38.6363 22.1448 38.78 23.6455C40.1779 38.3193 38.1306 50.7185 32.1416 63.8481C31.6832 64.8521 30.6927 65.446 29.6568 65.446Z"/>
    </symbol>
</svg>
